<svg xmlns="http://www.w3.org/2000/svg" version="1.1" xmlns:xlink="http://www.w3.org/1999/xlink" viewBox="0 0 200 200"><rect width="200" height="200" fill="url('#gradient')"></rect><defs><linearGradient id="gradient" gradientTransform="rotate(45 0.5 0.5)"><stop offset="0%" stop-color="#3c4845"></stop><stop offset="100%" stop-color="#1b7974"></stop></linearGradient></defs><g><g fill="#3df383" transform="matrix(2.4737619111528653,0,0,2.4737619111528653,7.344195326627975,113.2729418480289)" stroke="#c2d02d" stroke-width="0.2"><path d="M10.03-8.30L10.03-5.66L4.50-5.66L4.50 0L1.07 0L1.07-14.22L10.59-14.22L10.59-11.57L4.50-11.57L4.50-8.30L10.03-8.30ZM18.04 0L17.94-1.14Q16.89 0.20 15.12 0.20L15.12 0.20Q13.38 0.20 12.49-0.82Q11.59-1.83 11.59-3.72L11.59-3.72L11.59-10.57L14.88-10.57L14.88-3.70Q14.88-2.34 16.20-2.34L16.20-2.34Q17.33-2.34 17.81-3.15L17.81-3.15L17.81-10.57L21.12-10.57L21.12 0L18.04 0ZM23.47-13.19L26.76-13.19L26.76-10.57L28.50-10.57L28.50-8.28L26.76-8.28L26.76-3.45Q26.76-2.85 26.97-2.62Q27.19-2.38 27.82-2.38L27.82-2.38Q28.31-2.38 28.64-2.44L28.64-2.44L28.64-0.09Q27.75 0.20 26.79 0.20L26.79 0.20Q25.09 0.20 24.28-0.61Q23.47-1.41 23.47-3.04L23.47-3.04L23.47-8.28L22.12-8.28L22.12-10.57L23.47-10.57L23.47-13.19ZM34.62 0L29.94 0L29.94-14.22L34.52-14.22Q36.41-14.22 37.91-13.36Q39.41-12.51 40.26-10.95Q41.10-9.39 41.11-7.46L41.11-7.46L41.11-6.81Q41.11-4.85 40.29-3.31Q39.46-1.76 37.96-0.88Q36.46-0.01 34.62 0L34.62 0ZM34.52-11.57L33.37-11.57L33.37-2.64L34.56-2.64Q36.04-2.64 36.83-3.69Q37.62-4.74 37.62-6.81L37.62-6.81L37.62-7.42Q37.62-9.48 36.83-10.53Q36.04-11.57 34.52-11.57L34.52-11.57ZM51.96 0L48.67 0Q48.50-0.32 48.36-0.95L48.36-0.95Q47.45 0.20 45.82 0.20L45.82 0.20Q44.33 0.20 43.28-0.71Q42.24-1.61 42.24-2.98L42.24-2.98Q42.24-4.70 43.51-5.58Q44.78-6.46 47.20-6.46L47.20-6.46L48.21-6.46L48.21-7.01Q48.21-8.47 46.95-8.47L46.95-8.47Q45.78-8.47 45.78-7.31L45.78-7.31L42.49-7.31Q42.49-8.85 43.79-9.80Q45.10-10.76 47.12-10.76Q49.14-10.76 50.31-9.78Q51.48-8.79 51.51-7.07L51.51-7.07L51.51-2.39Q51.53-0.94 51.96-0.17L51.96-0.17L51.96 0ZM46.61-2.15L46.61-2.15Q47.23-2.15 47.63-2.41Q48.04-2.68 48.21-3.01L48.21-3.01L48.21-4.70L47.26-4.70Q45.54-4.70 45.54-3.15L45.54-3.15Q45.54-2.71 45.84-2.43Q46.14-2.15 46.61-2.15ZM56.81-10.57L56.81 0L53.51 0L53.51-10.57L56.81-10.57ZM53.31-13.29L53.31-13.29Q53.31-13.99 53.82-14.44Q54.33-14.89 55.14-14.89Q55.95-14.89 56.46-14.44Q56.96-13.99 56.96-13.29Q56.96-12.59 56.46-12.14Q55.95-11.69 55.14-11.69Q54.33-11.69 53.82-12.14Q53.31-12.59 53.31-13.29ZM62.30-15L62.30 0L59.00 0L59.00-15L62.30-15ZM66.88-10.57L68.55-4.61L70.31-10.57L73.84-10.57L69.53 1.77L69.35 2.22Q68.43 4.27 66.10 4.27L66.10 4.27Q65.46 4.27 64.75 4.07L64.75 4.07L64.75 1.72L65.18 1.72Q65.87 1.72 66.24 1.52Q66.60 1.32 66.78 0.80L66.78 0.80L67.04 0.10L63.37-10.57L66.88-10.57Z"></path></g></g></svg>